<svg xmlns="http://www.w3.org/2000/svg" width="2400" height="1600" viewBox="0 0 2400 1600" preserveAspectRatio="xMidYMid slice">
  <defs>
    <radialGradient id="a" cx="35%" cy="35%" r="70%"><stop offset="0" stop-color="#2563eb" stop-opacity=".28"/><stop offset="1" stop-color="#000" stop-opacity="0"/></radialGradient>
    <radialGradient id="b" cx="75%" cy="70%" r="60%"><stop offset="0" stop-color="#6366f1" stop-opacity=".22"/><stop offset="1" stop-color="#000" stop-opacity="0"/></radialGradient>
    <filter id="blur"><feGaussianBlur stdDeviation="1.4"/></filter>
  </defs>
  <rect width="2400" height="1600" fill="#020617"/>
  <rect width="2400" height="1600" fill="url(#a)"/>
  <rect width="2400" height="1600" fill="url(#b)"/>
  <g filter="url(#blur)" fill="none" stroke-linecap="round">
    <path d="M-50 320 C260 210 430 520 720 390 S1210 180 1510 330 2040 560 2450 360" stroke="#60a5fa" stroke-opacity=".18" stroke-width="3"/>
    <path d="M-50 520 C250 640 470 380 760 530 S1230 820 1530 610 2010 420 2450 680" stroke="#818cf8" stroke-opacity=".16" stroke-width="2"/>
    <path d="M-50 800 C300 680 520 900 820 740 S1280 480 1600 760 2040 960 2450 780" stroke="#38bdf8" stroke-opacity=".13" stroke-width="2"/>
    <path d="M-50 1040 C260 900 520 1180 860 1040 S1280 880 1650 990 2060 1210 2450 1060" stroke="#60a5fa" stroke-opacity=".12" stroke-width="2"/>
    <path d="M-50 1240 C340 1340 620 1120 900 1280 S1380 1480 1730 1240 2100 1180 2450 1350" stroke="#818cf8" stroke-opacity=".12" stroke-width="2"/>
  </g>
  <rect y="0" width="2400" height="260" fill="#000" opacity=".28"/>
  <rect y="1120" width="2400" height="480" fill="#000" opacity=".55"/>
  <rect width="300" height="1600" fill="#000" opacity=".35"/>
  <rect x="2100" width="300" height="1600" fill="#000" opacity=".35"/>
</svg>
